<svg width="1399" height="929" viewBox="0 0 1399 929" fill="none" xmlns="http://www.w3.org/2000/svg">
<rect x="30" y="5" width="10" height="10" fill="#7C3AED"/>
<rect x="80" y="44" width="10" height="10" fill="#3730A3"/>
<rect x="30" y="223" width="5" height="5" fill="#A5B4FC"/>
<rect x="156" y="146" width="14" height="14" fill="#A5B4FC"/>
<rect x="302" y="73" width="10" height="10" fill="#7E22CE"/>
<rect x="203" y="345" width="16" height="16" fill="#7E22CE"/>
<rect x="60" y="434" width="5" height="5" fill="#7E22CE"/>
<rect x="245" y="594" width="10" height="10" fill="#D9D9D9"/>
<rect y="526" width="13" height="13" fill="#9333EA"/>
<rect x="245" y="594" width="10" height="10" fill="#3730A3"/>
<rect x="146" y="531" width="8" height="8" fill="#3730A3"/>
<rect x="65" y="656" width="10" height="10" fill="#A5B4FC"/>
<rect x="198" y="781" width="10" height="10" fill="#9333EA"/>
<rect x="40" y="919" width="10" height="10" fill="#7E22CE"/>
<rect width="10" height="10" transform="matrix(-1 0 0 1 1369 0)" fill="#7C3AED"/>
<rect width="10" height="10" transform="matrix(-1 0 0 1 1319 39)" fill="#3730A3"/>
<rect width="5" height="5" transform="matrix(-1 0 0 1 1369 218)" fill="#A5B4FC"/>
<rect width="14" height="14" transform="matrix(-1 0 0 1 1243 141)" fill="#A5B4FC"/>
<rect width="10" height="10" transform="matrix(-1 0 0 1 1097 68)" fill="#7E22CE"/>
<rect width="16" height="16" transform="matrix(-1 0 0 1 1196 340)" fill="#7E22CE"/>
<rect width="5" height="5" transform="matrix(-1 0 0 1 1339 429)" fill="#7E22CE"/>
<rect width="10" height="10" transform="matrix(-1 0 0 1 1154 589)" fill="#D9D9D9"/>
<rect width="13" height="13" transform="matrix(-1 0 0 1 1399 521)" fill="#9333EA"/>
<rect width="10" height="10" transform="matrix(-1 0 0 1 1154 589)" fill="#3730A3"/>
<rect width="8" height="8" transform="matrix(-1 0 0 1 1253 526)" fill="#3730A3"/>
<rect width="10" height="10" transform="matrix(-1 0 0 1 1334 651)" fill="#A5B4FC"/>
<rect width="10" height="10" transform="matrix(-1 0 0 1 1201 776)" fill="#9333EA"/>
<rect width="10" height="10" transform="matrix(-1 0 0 1 1359 914)" fill="#7E22CE"/>
</svg>
