<svg width="198" height="143" viewBox="0 0 198 143" fill="none" xmlns="http://www.w3.org/2000/svg">
<line y1="-0.5" x2="156.116" y2="-0.5" transform="matrix(0.852555 -0.522637 0.524413 0.851464 24.0538 114.203)" stroke="white"/>
<path d="M30.4682 123.802L165.17 41.4097" stroke="white"/>
<path d="M31.5718 127.002C31.5718 135.56 24.6172 142.5 16.0359 142.5C7.45455 142.5 0.5 135.56 0.5 127.002C0.5 118.443 7.45455 111.503 16.0359 111.503C24.6172 111.503 31.5718 118.443 31.5718 127.002Z" stroke="white"/>
<path d="M25.1574 127.001C25.1574 132.026 21.0747 136.101 16.0359 136.101C10.9971 136.101 6.91437 132.026 6.91437 127.001C6.91437 121.977 10.9971 117.902 16.0359 117.902C21.0747 117.902 25.1574 121.977 25.1574 127.001Z" stroke="white"/>
<mask id="path-5-inside-1_22_36" fill="white">
<path d="M196.678 19.8075C197.7 24.1047 197.325 28.6152 195.606 32.6855C193.888 36.7559 190.915 40.1746 187.118 42.4466C183.322 44.7186 178.899 45.7259 174.491 45.3225C170.082 44.9191 165.917 43.126 162.598 40.2029C159.279 37.2798 156.979 33.3786 156.031 29.0643C155.084 24.7499 155.537 20.2466 157.326 16.2066C159.115 12.1666 162.147 8.79969 165.982 6.59361C169.817 4.38753 174.257 3.45684 178.658 3.93635L177.006 19.0293C175.818 18.8999 174.619 19.1512 173.583 19.7468C172.548 20.3424 171.729 21.2514 171.246 22.3422C170.763 23.433 170.641 24.6488 170.897 25.8136C171.153 26.9785 171.774 28.0318 172.67 28.821C173.566 29.6102 174.69 30.0943 175.881 30.2032C177.071 30.3121 178.265 30.0402 179.29 29.4268C180.315 28.8133 181.118 27.8903 181.582 26.7914C182.046 25.6924 182.147 24.4746 181.871 23.3144L196.678 19.8075Z"/>
</mask>
<path d="M196.678 19.8075C197.7 24.1047 197.325 28.6152 195.606 32.6855C193.888 36.7559 190.915 40.1746 187.118 42.4466C183.322 44.7186 178.899 45.7259 174.491 45.3225C170.082 44.9191 165.917 43.126 162.598 40.2029C159.279 37.2798 156.979 33.3786 156.031 29.0643C155.084 24.7499 155.537 20.2466 157.326 16.2066C159.115 12.1666 162.147 8.79969 165.982 6.59361C169.817 4.38753 174.257 3.45684 178.658 3.93635L177.006 19.0293C175.818 18.8999 174.619 19.1512 173.583 19.7468C172.548 20.3424 171.729 21.2514 171.246 22.3422C170.763 23.433 170.641 24.6488 170.897 25.8136C171.153 26.9785 171.774 28.0318 172.67 28.821C173.566 29.6102 174.69 30.0943 175.881 30.2032C177.071 30.3121 178.265 30.0402 179.29 29.4268C180.315 28.8133 181.118 27.8903 181.582 26.7914C182.046 25.6924 182.147 24.4746 181.871 23.3144L196.678 19.8075Z" stroke="white" stroke-width="2" mask="url(#path-5-inside-1_22_36)"/>
<mask id="path-6-inside-2_22_36" fill="white">
<path fill-rule="evenodd" clip-rule="evenodd" d="M150.942 38.3091C150.034 16.9986 132.429 0 110.845 0C93.0053 0 77.8839 11.6129 72.6619 27.6751C70.2596 25.8621 67.267 24.7867 64.0227 24.7867C56.2899 24.7867 49.9874 30.8958 49.6995 38.5403C47.8237 38.2721 45.9061 38.1334 43.9559 38.1334C21.7907 38.1334 3.82227 56.0599 3.82227 78.1734C3.82227 99.6476 20.767 117.174 42.0447 118.169V118.213H43.8999L43.9559 118.213L44.0119 118.213H147.101L147.157 118.213L147.213 118.213H150.979V118.034C171.351 116.114 187.29 99.0007 187.29 78.1734C187.29 57.3335 171.332 40.2122 150.942 38.3091Z"/>
</mask>
<path fill-rule="evenodd" clip-rule="evenodd" d="M150.942 38.3091C150.034 16.9986 132.429 0 110.845 0C93.0053 0 77.8839 11.6129 72.6619 27.6751C70.2596 25.8621 67.267 24.7867 64.0227 24.7867C56.2899 24.7867 49.9874 30.8958 49.6995 38.5403C47.8237 38.2721 45.9061 38.1334 43.9559 38.1334C21.7907 38.1334 3.82227 56.0599 3.82227 78.1734C3.82227 99.6476 20.767 117.174 42.0447 118.169V118.213H43.8999L43.9559 118.213L44.0119 118.213H147.101L147.157 118.213L147.213 118.213H150.979V118.034C171.351 116.114 187.29 99.0007 187.29 78.1734C187.29 57.3335 171.332 40.2122 150.942 38.3091Z" fill="#4C1D95"/>
<path d="M150.942 38.3091L149.943 38.3517L149.98 39.2237L150.849 39.3048L150.942 38.3091ZM72.6619 27.6751L72.0595 28.4733L73.1791 29.3183L73.6129 27.9842L72.6619 27.6751ZM49.6995 38.5403L49.558 39.5302L50.657 39.6874L50.6988 38.5779L49.6995 38.5403ZM42.0447 118.169H43.0447V117.214L42.0914 117.17L42.0447 118.169ZM42.0447 118.213H41.0447V119.213H42.0447V118.213ZM43.8999 118.213L43.9006 117.213H43.8999V118.213ZM43.9559 118.213L43.9552 119.213L43.9566 119.213L43.9559 118.213ZM44.0119 118.213L44.0119 117.213L44.0112 117.213L44.0119 118.213ZM147.101 118.213L147.101 117.213H147.101V118.213ZM147.157 118.213L147.156 119.213L147.157 119.213L147.157 118.213ZM147.213 118.213L147.213 117.213L147.212 117.213L147.213 118.213ZM150.979 118.213V119.213H151.979V118.213H150.979ZM150.979 118.034L150.885 117.039L149.979 117.124V118.034H150.979ZM110.845 1C131.893 1 149.057 17.5762 149.943 38.3517L151.941 38.2665C151.01 16.421 132.965 -1 110.845 -1V1ZM73.6129 27.9842C78.7046 12.3232 93.4498 1 110.845 1V-1C92.5607 -1 77.0633 10.9027 71.7109 27.3659L73.6129 27.9842ZM64.0227 25.7867C67.0424 25.7867 69.8249 26.7868 72.0595 28.4733L73.2643 26.8769C70.6943 24.9373 67.4917 23.7867 64.0227 23.7867V25.7867ZM50.6988 38.5779C50.9664 31.4708 56.8275 25.7867 64.0227 25.7867V23.7867C55.7523 23.7867 49.0083 30.3209 48.7002 38.5027L50.6988 38.5779ZM43.9559 39.1334C45.8586 39.1334 47.7289 39.2687 49.558 39.5302L49.8411 37.5504C47.9185 37.2755 45.9536 37.1334 43.9559 37.1334V39.1334ZM4.82227 78.1734C4.82227 56.6144 22.3408 39.1334 43.9559 39.1334V37.1334C21.2406 37.1334 2.82227 55.5054 2.82227 78.1734H4.82227ZM42.0914 117.17C21.3426 116.199 4.82227 99.109 4.82227 78.1734H2.82227C2.82227 100.186 20.1913 118.148 41.998 119.168L42.0914 117.17ZM43.0447 118.213V118.169H41.0447V118.213H43.0447ZM43.8999 117.213H42.0447V119.213H43.8999V117.213ZM43.9566 117.213L43.9006 117.213L43.8992 119.213L43.9552 119.213L43.9566 117.213ZM44.0112 117.213L43.9552 117.213L43.9566 119.213L44.0126 119.213L44.0112 117.213ZM147.101 117.213H44.0119V119.213H147.101V117.213ZM147.157 117.213L147.101 117.213L147.1 119.213L147.156 119.213L147.157 117.213ZM147.212 117.213L147.156 117.213L147.157 119.213L147.213 119.213L147.212 117.213ZM150.979 117.213H147.213V119.213H150.979V117.213ZM149.979 118.034V118.213H151.979V118.034H149.979ZM186.29 78.1734C186.29 98.478 170.751 115.166 150.885 117.039L151.073 119.03C171.952 117.062 188.29 99.5234 188.29 78.1734H186.29ZM150.849 39.3048C170.732 41.1605 186.29 57.8565 186.29 78.1734H188.29C188.29 56.8105 171.932 39.2639 151.035 37.3135L150.849 39.3048Z" fill="white" mask="url(#path-6-inside-2_22_36)"/>
</svg>
