<svg width="171" height="59" viewBox="0 0 171 59" fill="none" xmlns="http://www.w3.org/2000/svg">
<line x1="9.49434" y1="46.0023" x2="63.4781" y2="12.8316" stroke="white"/>
<path d="M12.3577 50.3307L66.9918 16.8348" stroke="white"/>
<circle cx="6.50406" cy="51.6316" r="6.00406" stroke="white"/>
<circle cx="6.50412" cy="51.6316" r="3.40244" stroke="white"/>
<mask id="path-5-inside-1_15_35" fill="white">
<path d="M79.7713 8.05256C80.1861 9.79959 80.0339 11.6333 79.3368 13.2881C78.6397 14.9428 77.434 16.3327 75.8942 17.2564C74.3544 18.18 72.5605 18.5895 70.7724 18.4255C68.9843 18.2615 67.2949 17.5325 65.9488 16.3442C64.6027 15.1558 63.6699 13.5698 63.2855 11.8158C62.901 10.0619 63.085 8.2311 63.8106 6.58866C64.5362 4.94622 65.7659 3.57743 67.3214 2.68056C68.877 1.7837 70.6777 1.40533 72.4627 1.60027L71.7925 7.73622C71.3106 7.68359 70.8244 7.78575 70.4045 8.02789C69.9845 8.27004 69.6525 8.6396 69.4566 9.08304C69.2606 9.52648 69.211 10.0208 69.3148 10.4943C69.4186 10.9679 69.6704 11.3961 70.0339 11.7169C70.3973 12.0378 70.8534 12.2346 71.3362 12.2789C71.819 12.3232 72.3033 12.2126 72.719 11.9632C73.1348 11.7138 73.4603 11.3386 73.6485 10.8918C73.8367 10.445 73.8778 9.94996 73.7658 9.47828L79.7713 8.05256Z"/>
</mask>
<path d="M79.7713 8.05256C80.1861 9.79959 80.0339 11.6333 79.3368 13.2881C78.6397 14.9428 77.434 16.3327 75.8942 17.2564C74.3544 18.18 72.5605 18.5895 70.7724 18.4255C68.9843 18.2615 67.2949 17.5325 65.9488 16.3442C64.6027 15.1558 63.6699 13.5698 63.2855 11.8158C62.901 10.0619 63.085 8.2311 63.8106 6.58866C64.5362 4.94622 65.7659 3.57743 67.3214 2.68056C68.877 1.7837 70.6777 1.40533 72.4627 1.60027L71.7925 7.73622C71.3106 7.68359 70.8244 7.78575 70.4045 8.02789C69.9845 8.27004 69.6525 8.6396 69.4566 9.08304C69.2606 9.52648 69.211 10.0208 69.3148 10.4943C69.4186 10.9679 69.6704 11.3961 70.0339 11.7169C70.3973 12.0378 70.8534 12.2346 71.3362 12.2789C71.819 12.3232 72.3033 12.2126 72.719 11.9632C73.1348 11.7138 73.4603 11.3386 73.6485 10.8918C73.8367 10.445 73.8778 9.94996 73.7658 9.47828L79.7713 8.05256Z" stroke="white" stroke-width="2" mask="url(#path-5-inside-1_15_35)"/>
<mask id="path-6-inside-2_15_35" fill="white">
<path fill-rule="evenodd" clip-rule="evenodd" d="M61.2213 15.5743C60.8528 6.91066 53.7126 0 44.9582 0C37.7224 0 31.5893 4.72116 29.4713 11.2511C28.4969 10.514 27.2832 10.0768 25.9673 10.0768C22.8309 10.0768 20.2746 12.5605 20.1579 15.6683C19.397 15.5593 18.6192 15.5028 17.8283 15.5028C8.83819 15.5028 1.55029 22.7907 1.55029 31.7808C1.55029 40.5111 8.42299 47.6361 17.0531 48.0407V48.0588H17.8283H59.6859H61.2362V47.9859C69.4991 47.2053 75.9639 40.248 75.9639 31.7808C75.9639 23.3085 69.4913 16.348 61.2213 15.5743Z"/>
</mask>
<path fill-rule="evenodd" clip-rule="evenodd" d="M61.2213 15.5743C60.8528 6.91066 53.7126 0 44.9582 0C37.7224 0 31.5893 4.72116 29.4713 11.2511C28.4969 10.514 27.2832 10.0768 25.9673 10.0768C22.8309 10.0768 20.2746 12.5605 20.1579 15.6683C19.397 15.5593 18.6192 15.5028 17.8283 15.5028C8.83819 15.5028 1.55029 22.7907 1.55029 31.7808C1.55029 40.5111 8.42299 47.6361 17.0531 48.0407V48.0588H17.8283H59.6859H61.2362V47.9859C69.4991 47.2053 75.9639 40.248 75.9639 31.7808C75.9639 23.3085 69.4913 16.348 61.2213 15.5743Z" fill="#4C1D95"/>
<path d="M61.2213 15.5743L60.2222 15.6168L60.2593 16.4887L61.1281 16.57L61.2213 15.5743ZM29.4713 11.2511L28.868 12.0486L29.9889 12.8965L30.4225 11.5596L29.4713 11.2511ZM20.1579 15.6683L20.016 16.6582L21.1155 16.8157L21.1572 15.7058L20.1579 15.6683ZM17.0531 48.0407H18.0531V47.0865L17.1 47.0418L17.0531 48.0407ZM17.0531 48.0588H16.0531V49.0588H17.0531V48.0588ZM61.2362 48.0588V49.0588H62.2362V48.0588H61.2362ZM61.2362 47.9859L61.1422 46.9904L60.2362 47.076V47.9859H61.2362ZM44.9582 1C53.1745 1 59.8764 7.48613 60.2222 15.6168L62.2204 15.5318C61.8292 6.33519 54.2506 -1 44.9582 -1V1ZM30.4225 11.5596C32.4107 5.42982 38.1685 1 44.9582 1V-1C37.2764 -1 30.7679 4.0125 28.5201 10.9426L30.4225 11.5596ZM25.9673 11.0768C27.0579 11.0768 28.0613 11.4384 28.868 12.0486L30.0746 10.4536C28.9326 9.58969 27.5084 9.07685 25.9673 9.07685V11.0768ZM21.1572 15.7058C21.2538 13.1333 23.3706 11.0768 25.9673 11.0768V9.07685C22.2912 9.07685 19.2954 11.9877 19.1586 15.6307L21.1572 15.7058ZM17.8283 16.5028C18.5716 16.5028 19.302 16.5559 20.016 16.6582L20.2997 14.6784C19.4921 14.5627 18.6669 14.5028 17.8283 14.5028V16.5028ZM2.55029 31.7808C2.55029 23.343 9.39048 16.5028 17.8283 16.5028V14.5028C8.28591 14.5028 0.550293 22.2385 0.550293 31.7808H2.55029ZM17.1 47.0418C9.00078 46.6621 2.55029 39.9745 2.55029 31.7808H0.550293C0.550293 41.0477 7.84519 48.6101 17.0063 49.0396L17.1 47.0418ZM18.0531 48.0588V48.0407H16.0531V48.0588H18.0531ZM17.8283 47.0588H17.0531V49.0588H17.8283V47.0588ZM59.6859 47.0588H17.8283V49.0588H59.6859V47.0588ZM61.2362 47.0588H59.6859V49.0588H61.2362V47.0588ZM60.2362 47.9859V48.0588H62.2362V47.9859H60.2362ZM74.9639 31.7808C74.9639 39.7273 68.8964 46.2578 61.1422 46.9904L61.3303 48.9815C70.1019 48.1528 76.9639 40.7688 76.9639 31.7808H74.9639ZM61.1281 16.57C68.8891 17.296 74.9639 23.8296 74.9639 31.7808H76.9639C76.9639 22.7875 70.0936 15.4 61.3144 14.5786L61.1281 16.57Z" fill="white" mask="url(#path-6-inside-2_15_35)"/>
<path d="M85.894 36.168C85.1193 36.168 84.4053 36.0467 83.752 35.804C83.108 35.552 82.5433 35.1973 82.058 34.74C81.582 34.2827 81.2087 33.746 80.938 33.13C80.6767 32.514 80.546 31.8373 80.546 31.1C80.546 30.3627 80.6767 29.686 80.938 29.07C81.2087 28.454 81.5867 27.9173 82.072 27.46C82.5573 27.0027 83.1267 26.6527 83.78 26.41C84.4333 26.158 85.152 26.032 85.936 26.032C86.804 26.032 87.5833 26.1767 88.274 26.466C88.974 26.7553 89.562 27.1753 90.038 27.726L88.582 29.07C88.2273 28.6967 87.84 28.4213 87.42 28.244C87 28.0573 86.5427 27.964 86.048 27.964C85.572 27.964 85.138 28.0387 84.746 28.188C84.354 28.3373 84.0133 28.552 83.724 28.832C83.444 29.112 83.2247 29.4433 83.066 29.826C82.9167 30.2087 82.842 30.6333 82.842 31.1C82.842 31.5573 82.9167 31.9773 83.066 32.36C83.2247 32.7427 83.444 33.0787 83.724 33.368C84.0133 33.648 84.3493 33.8627 84.732 34.012C85.124 34.1613 85.5533 34.236 86.02 34.236C86.468 34.236 86.902 34.166 87.322 34.026C87.7513 33.8767 88.1667 33.6293 88.568 33.284L89.856 34.922C89.324 35.3233 88.7033 35.6313 87.994 35.846C87.294 36.0607 86.594 36.168 85.894 36.168ZM87.784 34.628V30.946H89.856V34.922L87.784 34.628ZM96.4288 36V34.53L96.2888 34.208V31.576C96.2888 31.1093 96.1441 30.7453 95.8548 30.484C95.5748 30.2227 95.1408 30.092 94.5528 30.092C94.1514 30.092 93.7548 30.1573 93.3628 30.288C92.9801 30.4093 92.6534 30.5773 92.3828 30.792L91.5988 29.266C92.0094 28.9767 92.5041 28.7527 93.0828 28.594C93.6614 28.4353 94.2494 28.356 94.8468 28.356C95.9948 28.356 96.8861 28.6267 97.5208 29.168C98.1554 29.7093 98.4728 30.554 98.4728 31.702V36H96.4288ZM94.1328 36.112C93.5448 36.112 93.0408 36.014 92.6208 35.818C92.2008 35.6127 91.8788 35.3373 91.6548 34.992C91.4308 34.6467 91.3188 34.2593 91.3188 33.83C91.3188 33.382 91.4261 32.99 91.6408 32.654C91.8648 32.318 92.2148 32.0567 92.6908 31.87C93.1668 31.674 93.7874 31.576 94.5528 31.576H96.5548V32.85H94.7908C94.2774 32.85 93.9228 32.934 93.7268 33.102C93.5401 33.27 93.4468 33.48 93.4468 33.732C93.4468 34.012 93.5541 34.236 93.7688 34.404C93.9928 34.5627 94.2961 34.642 94.6788 34.642C95.0428 34.642 95.3694 34.558 95.6588 34.39C95.9481 34.2127 96.1581 33.956 96.2888 33.62L96.6248 34.628C96.4661 35.1133 96.1768 35.482 95.7568 35.734C95.3368 35.986 94.7954 36.112 94.1328 36.112ZM110.095 28.356C110.693 28.356 111.22 28.4773 111.677 28.72C112.144 28.9533 112.508 29.3173 112.769 29.812C113.04 30.2973 113.175 30.9227 113.175 31.688V36H110.991V32.024C110.991 31.4173 110.865 30.9693 110.613 30.68C110.361 30.3907 110.007 30.246 109.549 30.246C109.232 30.246 108.947 30.3207 108.695 30.47C108.443 30.61 108.247 30.8247 108.107 31.114C107.967 31.4033 107.897 31.772 107.897 32.22V36H105.713V32.024C105.713 31.4173 105.587 30.9693 105.335 30.68C105.093 30.3907 104.743 30.246 104.285 30.246C103.968 30.246 103.683 30.3207 103.431 30.47C103.179 30.61 102.983 30.8247 102.843 31.114C102.703 31.4033 102.633 31.772 102.633 32.22V36H100.449V28.468H102.535V30.526L102.143 29.924C102.405 29.4107 102.773 29.0233 103.249 28.762C103.735 28.4913 104.285 28.356 104.901 28.356C105.592 28.356 106.194 28.5333 106.707 28.888C107.23 29.2333 107.575 29.7653 107.743 30.484L106.973 30.274C107.225 29.686 107.627 29.2193 108.177 28.874C108.737 28.5287 109.377 28.356 110.095 28.356ZM119.585 36.112C118.922 36.112 118.353 35.972 117.877 35.692C117.401 35.412 117.037 34.9873 116.785 34.418C116.533 33.8393 116.407 33.1113 116.407 32.234C116.407 31.3473 116.538 30.6193 116.799 30.05C117.07 29.4807 117.443 29.056 117.919 28.776C118.395 28.496 118.95 28.356 119.585 28.356C120.294 28.356 120.929 28.5147 121.489 28.832C122.058 29.1493 122.506 29.5973 122.833 30.176C123.169 30.7547 123.337 31.4407 123.337 32.234C123.337 33.018 123.169 33.6993 122.833 34.278C122.506 34.8567 122.058 35.3093 121.489 35.636C120.929 35.9533 120.294 36.112 119.585 36.112ZM115.133 36V25.612H117.317V29.994L117.177 32.22L117.219 34.46V36H115.133ZM119.207 34.32C119.571 34.32 119.893 34.236 120.173 34.068C120.462 33.9 120.691 33.662 120.859 33.354C121.036 33.0367 121.125 32.6633 121.125 32.234C121.125 31.7953 121.036 31.422 120.859 31.114C120.691 30.806 120.462 30.568 120.173 30.4C119.893 30.232 119.571 30.148 119.207 30.148C118.843 30.148 118.516 30.232 118.227 30.4C117.938 30.568 117.709 30.806 117.541 31.114C117.373 31.422 117.289 31.7953 117.289 32.234C117.289 32.6633 117.373 33.0367 117.541 33.354C117.709 33.662 117.938 33.9 118.227 34.068C118.516 34.236 118.843 34.32 119.207 34.32ZM124.799 36V28.468H126.983V36H124.799ZM125.891 27.418C125.49 27.418 125.163 27.3013 124.911 27.068C124.659 26.8347 124.533 26.5453 124.533 26.2C124.533 25.8547 124.659 25.5653 124.911 25.332C125.163 25.0987 125.49 24.982 125.891 24.982C126.292 24.982 126.619 25.094 126.871 25.318C127.123 25.5327 127.249 25.8127 127.249 26.158C127.249 26.522 127.123 26.8253 126.871 27.068C126.628 27.3013 126.302 27.418 125.891 27.418ZM133.854 36.168C133.098 36.168 132.393 36.0467 131.74 35.804C131.096 35.552 130.536 35.1973 130.06 34.74C129.584 34.2827 129.211 33.746 128.94 33.13C128.679 32.514 128.548 31.8373 128.548 31.1C128.548 30.3627 128.679 29.686 128.94 29.07C129.211 28.454 129.584 27.9173 130.06 27.46C130.545 27.0027 131.11 26.6527 131.754 26.41C132.398 26.158 133.103 26.032 133.868 26.032C134.717 26.032 135.483 26.1813 136.164 26.48C136.855 26.7693 137.433 27.1987 137.9 27.768L136.444 29.112C136.108 28.7293 135.735 28.4447 135.324 28.258C134.913 28.062 134.465 27.964 133.98 27.964C133.523 27.964 133.103 28.0387 132.72 28.188C132.337 28.3373 132.006 28.552 131.726 28.832C131.446 29.112 131.227 29.4433 131.068 29.826C130.919 30.2087 130.844 30.6333 130.844 31.1C130.844 31.5667 130.919 31.9913 131.068 32.374C131.227 32.7567 131.446 33.088 131.726 33.368C132.006 33.648 132.337 33.8627 132.72 34.012C133.103 34.1613 133.523 34.236 133.98 34.236C134.465 34.236 134.913 34.1427 135.324 33.956C135.735 33.76 136.108 33.466 136.444 33.074L137.9 34.418C137.433 34.9873 136.855 35.4213 136.164 35.72C135.483 36.0187 134.713 36.168 133.854 36.168ZM139.278 36V25.612H141.462V36H139.278ZM147.072 36.112C146.27 36.112 145.556 35.944 144.93 35.608C144.314 35.272 143.824 34.8147 143.46 34.236C143.106 33.648 142.928 32.9807 142.928 32.234C142.928 31.478 143.106 30.8107 143.46 30.232C143.824 29.644 144.314 29.1867 144.93 28.86C145.556 28.524 146.27 28.356 147.072 28.356C147.866 28.356 148.575 28.524 149.2 28.86C149.826 29.1867 150.316 29.6393 150.67 30.218C151.025 30.7967 151.202 31.4687 151.202 32.234C151.202 32.9807 151.025 33.648 150.67 34.236C150.316 34.8147 149.826 35.272 149.2 35.608C148.575 35.944 147.866 36.112 147.072 36.112ZM147.072 34.32C147.436 34.32 147.763 34.236 148.052 34.068C148.342 33.9 148.57 33.662 148.738 33.354C148.906 33.0367 148.99 32.6633 148.99 32.234C148.99 31.7953 148.906 31.422 148.738 31.114C148.57 30.806 148.342 30.568 148.052 30.4C147.763 30.232 147.436 30.148 147.072 30.148C146.708 30.148 146.382 30.232 146.092 30.4C145.803 30.568 145.57 30.806 145.392 31.114C145.224 31.422 145.14 31.7953 145.14 32.234C145.14 32.6633 145.224 33.0367 145.392 33.354C145.57 33.662 145.803 33.9 146.092 34.068C146.382 34.236 146.708 34.32 147.072 34.32ZM155.84 36.112C155.215 36.112 154.655 35.9907 154.16 35.748C153.675 35.5053 153.297 35.1367 153.026 34.642C152.756 34.138 152.62 33.4987 152.62 32.724V28.468H154.804V32.402C154.804 33.0273 154.935 33.4893 155.196 33.788C155.467 34.0773 155.845 34.222 156.33 34.222C156.666 34.222 156.965 34.152 157.226 34.012C157.488 33.8627 157.693 33.6387 157.842 33.34C157.992 33.032 158.066 32.6493 158.066 32.192V28.468H160.25V36H158.178V33.928L158.556 34.53C158.304 35.0527 157.931 35.4493 157.436 35.72C156.951 35.9813 156.419 36.112 155.84 36.112ZM165.508 36.112C164.798 36.112 164.159 35.9533 163.59 35.636C163.02 35.3093 162.568 34.8567 162.232 34.278C161.905 33.6993 161.742 33.018 161.742 32.234C161.742 31.4407 161.905 30.7547 162.232 30.176C162.568 29.5973 163.02 29.1493 163.59 28.832C164.159 28.5147 164.798 28.356 165.508 28.356C166.142 28.356 166.698 28.496 167.174 28.776C167.65 29.056 168.018 29.4807 168.28 30.05C168.541 30.6193 168.672 31.3473 168.672 32.234C168.672 33.1113 168.546 33.8393 168.294 34.418C168.042 34.9873 167.678 35.412 167.202 35.692C166.735 35.972 166.17 36.112 165.508 36.112ZM165.886 34.32C166.24 34.32 166.562 34.236 166.852 34.068C167.141 33.9 167.37 33.662 167.538 33.354C167.715 33.0367 167.804 32.6633 167.804 32.234C167.804 31.7953 167.715 31.422 167.538 31.114C167.37 30.806 167.141 30.568 166.852 30.4C166.562 30.232 166.24 30.148 165.886 30.148C165.522 30.148 165.195 30.232 164.906 30.4C164.616 30.568 164.383 30.806 164.206 31.114C164.038 31.422 163.954 31.7953 163.954 32.234C163.954 32.6633 164.038 33.0367 164.206 33.354C164.383 33.662 164.616 33.9 164.906 34.068C165.195 34.236 165.522 34.32 165.886 34.32ZM167.86 36V34.46L167.902 32.22L167.762 29.994V25.612H169.946V36H167.86Z" fill="white"/>
</svg>
